<?xml version="1.0" encoding="UTF-8"?>
<svg id="Layer_2" data-name="Layer 2" xmlns="http://www.w3.org/2000/svg" viewBox="0 0 339.26 141.23">
  <defs>
    <style>
      .cls-1, .cls-2 {
        fill: #8ccaef;
      }

      .cls-3, .cls-4 {
        fill: #3f85a5;
      }

      .cls-5 {
        letter-spacing: 0em;
      }

      .cls-6 {
        letter-spacing: 0em;
      }

      .cls-2 {
        font-family: PlusJakartaSans-SemiBold, 'Plus Jakarta Sans';
        font-size: 41px;
        font-variation-settings: 'wght' 600;
        font-weight: 600;
      }

      .cls-7 {
        letter-spacing: -.02em;
      }

      .cls-8 {
        letter-spacing: 0em;
      }

      .cls-4 {
        font-family: SignikaNegative-Bold, 'Signika Negative';
        font-size: 111px;
        font-variation-settings: 'wght' 700;
        font-weight: 700;
      }

      .cls-9 {
        letter-spacing: 0em;
      }
    </style>
  </defs>
  <g id="Layer_1-2" data-name="Layer 1">
    <rect class="cls-1" x="31.56" y="53.63" width="40.35" height="87.54" rx="6.27" ry="6.27"/>
    <rect class="cls-3" x="0" y="75.42" width="25.99" height="48.35" rx="8.2" ry="8.2"/>
    <path class="cls-3" d="m145.14,133.98V10.99c0-3.87-3.13-7-7-7h-34.35c-3.87,0-7,3.13-7,7v62.67s-11.57,0-11.57,0c-4.26,0-7.74,3.15-7.74,7v34.35c0,3.85,3.49,7,7.74,7h11.57s0,11.96,0,11.96c0,3.87,3.13,7,7,7h34.35c3.87,0,7-3.13,7-7Z"/>
    <text class="cls-4" transform="translate(150.71 93.52) scale(.88 1)"><tspan x="0" y="0">Fh</tspan><tspan class="cls-6" x="119.43" y="0">u</tspan><tspan class="cls-9" x="180.21" y="0">i</tspan></text>
    <text class="cls-2" transform="translate(158.37 131.39)"><tspan x="0" y="0">In</tspan><tspan class="cls-8" x="35.18" y="0">t</tspan><tspan class="cls-5" x="51.37" y="0">er</tspan><tspan class="cls-7" x="91.35" y="0">f</tspan><tspan x="107.21" y="0">ace</tspan></text>
  </g>
</svg>